<svg width="204" height="21" viewBox="0 0 204 21" fill="none" xmlns="http://www.w3.org/2000/svg">
<path d="M197.112 10.1199H192.39V4.21175H197.112C197.51 4.15488 197.916 4.19199 198.298 4.3201C198.679 4.44821 199.026 4.66378 199.309 4.94957C199.592 5.23537 199.805 5.58347 199.929 5.96605C200.054 6.34863 200.088 6.75509 200.027 7.15294C200.092 7.55273 200.062 7.96217 199.939 8.34815C199.817 8.73413 199.605 9.0858 199.321 9.37469C199.037 9.66358 198.689 9.88158 198.305 10.0111C197.922 10.1405 197.513 10.1778 197.112 10.1199ZM197.112 1.27055H189.372V19.8465H192.416V13.0611H197.009C197.819 13.144 198.638 13.0507 199.409 12.7875C200.18 12.5243 200.885 12.0974 201.476 11.5362C202.066 10.975 202.528 10.2928 202.831 9.53617C203.133 8.77959 203.268 7.9666 203.226 7.15294C203.278 6.35367 203.156 5.55267 202.869 4.80503C202.582 4.05739 202.136 3.38084 201.562 2.82188C200.988 2.26293 200.301 1.83484 199.546 1.56705C198.791 1.29925 197.987 1.1981 197.189 1.27055H197.112ZM177.839 4.05695C180.729 4.05695 182.69 6.63694 182.69 10.5843C182.69 14.5317 180.832 17.0601 177.943 17.0601C175.053 17.0601 173.092 14.4801 173.092 10.5327C173.092 6.58534 174.95 4.05695 177.839 4.05695ZM177.839 0.986754C173.066 0.986754 169.867 4.85675 169.867 10.5843C169.867 16.3119 173.041 20.1561 177.788 20.1561C182.535 20.1561 185.76 16.2861 185.76 10.5327C185.76 4.77935 182.587 0.986754 177.839 0.986754ZM163.159 8.72674H155.135V1.27055H152.039V19.8465H155.135V11.7453H163.133V19.8465H166.229V1.27055H163.133L163.159 8.72674ZM142.519 8.85574C139.217 7.87534 138.675 7.25614 138.675 6.27574C138.675 5.29535 139.733 4.18595 141.539 4.18595C142.306 4.14642 143.073 4.27878 143.782 4.57338C144.492 4.86798 145.127 5.31737 145.641 5.88874L147.834 3.66995L147.705 3.54095C146.922 2.71573 145.977 2.06076 144.929 1.61687C143.882 1.17298 142.754 0.949696 141.616 0.960954C140.866 0.867893 140.105 0.929721 139.381 1.14261C138.656 1.3555 137.982 1.71491 137.402 2.19861C136.821 2.68231 136.346 3.27999 136.006 3.95467C135.666 4.62934 135.468 5.36665 135.424 6.12094C135.424 9.65554 137.617 10.5843 141.255 11.6679C144.299 12.5709 145.228 13.2417 145.228 14.5059C145.228 15.0993 145.228 16.9569 141.642 16.9569C140.776 16.9336 139.923 16.7367 139.134 16.3777C138.345 16.0187 137.636 15.505 137.05 14.8671V14.7381L134.831 16.8795C135.65 17.9178 136.698 18.7534 137.893 19.3216C139.087 19.8898 140.397 20.1753 141.719 20.1561C147.731 20.1561 148.634 16.5699 148.634 14.4543C148.634 10.8681 146.054 9.75874 142.674 8.77834L142.519 8.85574ZM121.441 6.43054C120.873 7.43674 120.125 8.85574 119.738 9.68134C119.325 8.82994 118.551 7.35934 118.009 6.37894L115.12 1.21895H111.353L118.035 12.4677V19.7949H121.079V12.5193L127.762 1.27055H124.227L121.441 6.43054ZM99.7945 4.28915H101.858C102.684 4.21821 103.515 4.33485 104.289 4.63033C105.063 4.92581 105.76 5.39249 106.328 5.99545C106.897 6.59841 107.321 7.32205 107.57 8.11224C107.819 8.90243 107.886 9.73872 107.767 10.5585C107.89 11.3901 107.821 12.239 107.565 13.0397C107.309 13.8405 106.872 14.5718 106.289 15.1774C105.706 15.783 104.992 16.2467 104.201 16.5328C103.411 16.819 102.565 16.9199 101.729 16.8279H99.6655L99.7945 4.28915ZM101.858 1.27055H96.6985V19.8465H101.858C103.078 19.9115 104.297 19.7126 105.433 19.2633C106.568 18.8141 107.594 18.1251 108.439 17.2434C109.284 16.3617 109.928 15.308 110.329 14.1543C110.729 13.0007 110.876 11.7742 110.759 10.5585C110.888 9.3272 110.744 8.08261 110.338 6.91308C109.932 5.74356 109.274 4.67775 108.409 3.79131C107.545 2.90487 106.496 2.21951 105.337 1.78386C104.178 1.34822 102.938 1.17297 101.704 1.27055H101.858ZM84.9595 4.05695C87.8491 4.05695 89.8099 6.63694 89.8099 10.5843C89.8099 14.5317 87.9523 17.0601 85.0627 17.0601C82.1731 17.0601 80.2123 14.4801 80.2123 10.5327C80.2123 6.58534 82.0699 4.05695 84.9595 4.05695ZM84.9595 0.986754C80.1865 0.986754 76.9873 4.85675 76.9873 10.5843C76.9873 16.3119 80.1607 20.1561 84.9079 20.1561C89.6551 20.1561 92.8801 16.2861 92.8801 10.5327C92.8801 4.77935 89.7067 0.986754 84.9595 0.986754ZM68.0605 8.49454H63.4423V4.13435H68.1379C68.4462 4.08534 68.7616 4.10778 69.0598 4.19995C69.358 4.29211 69.6311 4.45153 69.8579 4.66592C70.0848 4.88031 70.2593 5.14393 70.3682 5.43646C70.4771 5.72899 70.5173 6.04261 70.4857 6.35314C70.4955 6.65501 70.4398 6.9554 70.3223 7.23364C70.2048 7.51188 70.0285 7.76136 69.8053 7.96489C69.5822 8.16841 69.3176 8.32116 69.0297 8.41259C68.7419 8.50403 68.4376 8.53198 68.1379 8.49454H68.0605ZM68.1379 16.9827H63.4423V11.3325H68.1895C68.5854 11.2577 68.9933 11.2766 69.3805 11.3877C69.7677 11.4988 70.1236 11.6991 70.4195 11.9724C70.7154 12.2458 70.9432 12.5847 71.0846 12.9619C71.2261 13.3391 71.2772 13.7442 71.2339 14.1447C71.2339 16.0539 70.2277 16.9827 68.1121 16.9827H68.1379ZM71.5435 9.78454C72.1829 9.43512 72.7122 8.9145 73.0722 8.28107C73.4322 7.64764 73.6087 6.92644 73.5817 6.19834C73.6109 5.50052 73.4865 4.8048 73.2174 4.16029C72.9483 3.51577 72.5411 2.93817 72.0244 2.46823C71.5077 1.99829 70.8942 1.64747 70.2271 1.44053C69.56 1.23359 68.8557 1.17556 68.1637 1.27055H60.4238V19.8465H67.8283C71.9821 19.8465 74.2525 17.8083 74.2525 14.0673C74.2898 13.1526 74.0417 12.2489 73.5424 11.4815C73.0432 10.7141 72.3175 10.1211 71.4661 9.78454H71.5435ZM39.1904 11.4615H44.3504V8.44294H39.1904V4.28915H48.1946V1.27055H36.1718V19.8465H48.659V16.8279H39.2678L39.1904 11.4615ZM28.535 8.64934H20.5886V1.27055H17.4926V19.8465H20.5886V11.7453H28.6124V19.8465H31.7084V1.27055H28.6124L28.535 8.64934ZM0.825867 4.31495H5.98586V19.7949H9.08185V4.31495H14.5256V1.27055H0.825867V4.31495Z" fill="#004236"/>
</svg>
