<svg width="208" height="66" viewBox="0 0 208 66" fill="none" xmlns="http://www.w3.org/2000/svg">
<g clip-path="url(#clip0)">
<path d="M12.129 29.843C9.5156 35.601 7.39469 41.57 5.78899 47.686C4.87557 47.4536 3.93992 47.3195 2.99799 47.286C1.98777 47.3263 0.983465 47.4602 -0.00201416 47.686C6.05999 34.479 16.14 12.26 20.974 0C21.5371 0.111747 22.1083 0.178636 22.682 0.200012C23.1905 0.204022 23.6971 0.136687 24.187 0C29.427 14.316 44.481 47.423 44.623 47.686C43.2978 47.4244 41.9507 47.2905 40.6 47.286C39.1373 47.2955 37.678 47.4293 36.238 47.686C34.4053 41.5707 32.1048 35.6054 29.357 29.843H12.129ZM20.647 9.53799L13.485 26.438H28.002L20.647 9.53799Z" fill="black"/>
<path d="M55.589 31.137C55.589 33.045 55.589 36.926 57.426 40.052C58.3665 41.7356 59.7565 43.1245 61.4409 44.0636C63.1252 45.0027 65.0375 45.455 66.964 45.37C69.0863 45.4277 71.1894 44.9542 73.0823 43.9927C74.9752 43.0311 76.5979 41.6119 77.803 39.864L78.623 40.052C78.3345 41.3966 78.1728 42.7652 78.14 44.14C75.146 47.007 70.986 48.579 65.468 48.579C55.111 48.579 48.775 42.039 48.775 31.539C48.775 22.139 53.953 14.239 65.132 14.239C80.32 14.239 80.113 27.459 80.052 31.139L55.589 31.137ZM73.236 28.27C73.236 26.022 73.236 16.959 65.063 16.959C59.133 16.959 56.27 21.459 55.655 28.27H73.236Z" fill="black"/>
<path d="M105.998 22.138C105.846 21.3166 105.534 20.5332 105.079 19.8329C104.623 19.1326 104.034 18.529 103.345 18.057C102.017 17.2395 100.475 16.8354 98.917 16.896C94.763 16.896 92.584 19.076 92.584 22.002C92.584 25.955 96.607 27.388 98.984 28.002C105.049 29.568 109.961 30.869 109.961 37.68C109.961 42.858 106.344 48.644 96.874 48.644C93.3099 48.6841 89.8104 47.6926 86.797 45.789C87.566 44.0502 88.0926 42.2141 88.362 40.332L89.175 40.132C89.8124 42.0312 91.1223 43.6317 92.858 44.632C94.3661 45.508 96.0853 45.9541 97.829 45.922C101.376 45.922 104.71 44.222 104.71 40.337C104.71 36.452 102.394 35.702 95.245 33.39C92.311 32.432 87.473 30.32 87.473 24.327C87.473 20.45 89.86 14.182 99.266 14.182C102.406 14.1264 105.505 14.8978 108.253 16.419C107.518 18.2493 107.059 20.1787 106.892 22.144L105.998 22.138Z" fill="black"/>
<path d="M151.99 30.997C151.99 41.832 144.496 48.643 134.151 48.643C126.918 48.643 116.837 45.369 116.837 31.399C116.837 20.779 123.92 14.175 134.151 14.175C147.083 14.176 151.99 22.692 151.99 30.997ZM123.783 31.204C123.783 40.675 127.94 45.917 134.207 45.917C140.751 45.917 145.043 40.264 145.043 31.269C145.043 25.955 143.406 16.896 134.543 16.896C123.782 16.895 123.782 29.153 123.782 31.204H123.783Z" fill="black"/>
<path d="M178.085 48.712C171.674 48.712 168.072 45.175 166.978 42.38C166.978 53.068 166.911 59.28 167.321 65.537C166.164 65.2338 164.969 65.0991 163.773 65.137C162.536 65.1 161.299 65.2346 160.099 65.537C160.642 56.685 160.846 47.763 160.846 38.903C160.846 32.703 160.714 24.322 160.503 14.445C161.599 14.7012 162.719 14.8354 163.844 14.845C164.968 14.8291 166.086 14.695 167.182 14.445C166.911 18.19 166.911 19.208 166.911 20.645C168.038 18.5837 169.72 16.8788 171.765 15.723C173.811 14.5673 176.139 14.0068 178.486 14.105C185.301 14.105 193.621 19.076 193.621 31.205C193.62 41.965 187.005 48.712 178.085 48.712ZM169.637 21.054C168.272 22.754 166.837 25.21 166.837 31.954C166.837 37.947 168.198 40.202 169.637 41.896C170.499 42.974 171.599 43.8372 172.851 44.4177C174.103 44.9982 175.473 45.28 176.852 45.241C186.597 45.241 186.597 33.727 186.597 31.541C186.597 21.253 181.69 17.519 177.267 17.519C175.806 17.4601 174.352 17.75 173.025 18.3648C171.698 18.9795 170.537 19.9013 169.637 21.054Z" fill="black"/>
<path d="M74.823 7.85599H55.996V5.729H74.823V7.85599Z" fill="black"/>
<path d="M203.542 39.457C204.427 39.4516 205.294 39.7092 206.032 40.1969C206.771 40.6847 207.348 41.3807 207.69 42.1967C208.032 43.0128 208.125 43.9122 207.956 44.7808C207.786 45.6495 207.363 46.4483 206.739 47.076C206.115 47.7038 205.319 48.1322 204.451 48.3069C203.584 48.4817 202.684 48.3949 201.866 48.0576C201.048 47.7203 200.348 47.1477 199.856 46.4123C199.363 45.677 199.1 44.812 199.1 43.927C199.094 43.3406 199.204 42.7589 199.425 42.2157C199.646 41.6724 199.972 41.1785 200.386 40.7625C200.799 40.3466 201.291 40.017 201.833 39.7929C202.375 39.5687 202.956 39.4546 203.542 39.457ZM203.542 40.257C202.58 40.2729 201.662 40.6663 200.988 41.3523C200.313 42.0384 199.935 42.9622 199.935 43.9245C199.935 44.8868 200.313 45.8106 200.988 46.4966C201.662 47.1827 202.58 47.5761 203.542 47.592C204.504 47.5761 205.422 47.1827 206.096 46.4966C206.771 45.8106 207.149 44.8868 207.149 43.9245C207.149 42.9622 206.771 42.0384 206.096 41.3523C205.422 40.6663 204.504 40.2729 203.542 40.257ZM205.96 46.333C205.791 46.3034 205.621 46.2857 205.45 46.28C205.277 46.28 205.104 46.314 204.832 46.333C204.221 45.4696 203.556 44.6457 202.841 43.866H202.675C202.675 44.639 202.675 45.239 202.739 46.333C202.551 46.3039 202.361 46.2862 202.17 46.28C202.012 46.2822 201.854 46.3 201.699 46.333C201.772 45.4637 201.8 44.5912 201.782 43.719C201.782 42.455 201.756 41.833 201.725 41.298C202.102 41.313 202.37 41.313 202.947 41.313C204.196 41.313 205.47 41.298 205.47 42.505C205.47 43.557 204.331 43.719 203.829 43.768C204.157 44.221 205.677 45.93 205.998 46.253L205.96 46.333ZM202.694 41.664C202.675 42.336 202.675 42.931 202.675 43.523C203.214 43.523 204.504 43.523 204.504 42.562C204.505 41.667 203.512 41.667 202.694 41.667V41.664Z" fill="black"/>
</g>
<defs>
<clipPath id="clip0">
<rect width="208" height="65.536" fill="white"/>
</clipPath>
</defs>
</svg>
