<svg width="252" height="107" viewBox="0 0 252 107" fill="none" xmlns="http://www.w3.org/2000/svg">
<path d="M243.982 93.8184H238.129V86.5069H243.982C244.472 86.461 244.965 86.524 245.428 86.6913C245.89 86.8586 246.31 87.1261 246.657 87.4746C247.004 87.8232 247.269 88.2442 247.434 88.7074C247.599 89.1706 247.66 89.6646 247.612 90.154C247.673 90.6468 247.621 91.147 247.461 91.6169C247.301 92.0869 247.036 92.5143 246.686 92.8671C246.337 93.2199 245.912 93.4888 245.443 93.6536C244.975 93.8183 244.475 93.8747 243.982 93.8184ZM243.982 82.8425H234.309V105.906H238.077V97.4828H243.756C248.515 97.4828 251.485 94.6694 251.485 90.154C251.54 89.1628 251.382 88.1713 251.022 87.2462C250.662 86.3211 250.108 85.4839 249.397 84.7911C248.686 84.0983 247.835 83.5658 246.901 83.2297C245.967 82.8936 244.971 82.7616 243.982 82.8425ZM219.894 86.3159C223.489 86.3159 225.92 89.5635 225.92 94.4089C225.92 99.2542 223.611 102.45 220.016 102.45C216.421 102.45 214.024 99.1848 214.024 94.3394C214.024 89.494 216.317 86.3159 219.894 86.3159ZM219.981 82.4952C214.076 82.4952 210.099 87.2884 210.099 94.4089C210.099 101.529 214.042 106.253 219.912 106.253C225.782 106.253 229.828 101.477 229.828 94.3394C229.828 87.2016 225.868 82.4952 219.981 82.4952ZM201.781 91.9775H191.847V82.8425H188.148V105.906H191.986V95.8329H201.919V105.906H205.775V82.8425H201.919L201.781 91.9775ZM176.234 92.1512C172.135 90.9355 171.475 90.1887 171.475 88.8515C171.475 87.2363 172.795 86.2812 174.949 86.2812C175.921 86.2321 176.892 86.3981 177.792 86.7674C178.693 87.1366 179.501 87.7 180.159 88.4173L180.332 88.591L183.042 85.847L182.868 85.6733C181.892 84.6655 180.719 83.8682 179.423 83.3305C178.126 82.7929 176.734 82.5264 175.331 82.5473C170.798 82.5473 167.637 85.2218 167.637 89.0772C167.637 93.471 170.364 94.5999 174.879 96.024C178.648 97.1528 179.811 97.9864 179.811 99.4974C179.811 100.262 179.811 102.554 175.365 102.554C174.287 102.526 173.225 102.281 172.243 101.834C171.261 101.386 170.38 100.745 169.652 99.9489L169.495 99.7752L166.752 102.311L166.89 102.484C167.904 103.668 169.165 104.615 170.584 105.257C172.004 105.899 173.547 106.221 175.105 106.201C182.573 106.201 183.684 101.772 183.684 99.1327C183.684 94.7215 180.332 93.3321 176.286 92.1859L176.234 92.1512ZM149.94 89.2335C149.246 90.484 148.325 92.2554 147.822 93.2627C147.318 92.238 146.38 90.4145 145.703 89.1988L142.108 82.8425H137.61L145.877 96.736V105.854H149.732V96.7881L157.999 82.8946H153.57L149.94 89.2335ZM123.109 86.6806H125.627C131.688 86.6806 132.956 90.9181 132.956 94.461C132.956 98.0038 131.688 102.241 125.627 102.241H123.109V86.6806ZM125.627 82.8425H119.253V105.906H125.627C128.267 105.906 136.863 105.072 136.863 94.3741C136.863 87.1669 132.66 82.8425 125.627 82.8425ZM104.786 86.3159C108.399 86.3159 110.83 89.5635 110.83 94.4089C110.83 99.2542 108.503 102.45 104.925 102.45C101.348 102.45 98.9165 99.1848 98.9165 94.3394C98.9165 89.494 101.313 86.3159 104.786 86.3159ZM104.891 82.4952C98.9859 82.4952 95.0089 87.2884 95.0089 94.4089C95.0089 101.529 98.9512 106.253 104.821 106.253C110.691 106.253 114.738 101.477 114.738 94.3394C114.738 87.2016 110.778 82.4952 104.891 82.4952ZM83.9462 91.7865H78.163V86.4027H83.9462C86.3428 86.4027 86.8465 87.8963 86.8465 89.1467C86.8627 89.5205 86.7966 89.8933 86.6528 90.2387C86.509 90.5842 86.2911 90.8938 86.0144 91.1456C85.7377 91.3975 85.409 91.5854 85.0516 91.6961C84.6942 91.8069 84.3168 91.8377 83.9462 91.7865ZM83.9462 102.311H78.163V95.364H84.0504C84.5366 95.2969 85.0315 95.338 85.5 95.4842C85.9685 95.6305 86.3989 95.8783 86.7605 96.2101C87.1221 96.5419 87.4061 96.9494 87.592 97.4035C87.778 97.8577 87.8615 98.3473 87.8364 98.8374C87.8364 101.199 86.5686 102.311 83.9636 102.311H83.9462ZM88.2185 93.3842C89.0068 92.9424 89.6587 92.2924 90.1028 91.5053C90.5468 90.7182 90.7661 89.8242 90.7367 88.9209C90.7367 85.1002 88.2358 82.8078 84.0331 82.8078H74.4986V105.906H83.7031C88.9131 105.906 91.6745 103.353 91.6745 98.7332C91.7228 97.5957 91.4138 96.4716 90.7909 95.5185C90.168 94.5655 89.2624 93.8313 88.2011 93.4189L88.2185 93.3842ZM48.1704 95.4856H54.6657V91.7344H48.1704V86.6806H59.3374V82.8425H44.315V105.906H59.8236V102.155H48.1704V95.4856ZM34.9369 92.0122H25.003V82.8425H21.1476V105.906H25.003V95.8329H34.9369V105.906H38.7923V82.8425H34.9369V92.0122ZM0.463623 86.6806H7.04567V105.958H10.9011V86.6806H17.4832V82.8425H0.463623V86.6806Z" fill="#004236"/>
<path d="M138.495 0.0893234C137.649 0.240771 136.884 0.686273 136.334 1.3472C135.784 2.00813 135.486 2.84199 135.491 3.70163C135.467 4.49274 135.714 5.26832 136.191 5.89998C136.668 6.53163 137.346 6.98147 138.113 7.17501C152.806 12.6629 161.611 27.7721 156.54 41.9088C154.29 48.1998 150.15 53.6416 144.688 57.4891C139.225 61.3366 132.707 63.4017 126.026 63.4017C119.345 63.4017 112.827 61.3366 107.364 57.4891C101.902 53.6416 97.7624 48.1998 95.5124 41.9088C90.4412 27.7548 99.2289 12.6456 113.939 7.17501C114.706 6.98147 115.384 6.53163 115.861 5.89998C116.338 5.26832 116.585 4.49274 116.561 3.70163C116.562 2.84703 116.26 2.01966 115.711 1.36522C115.161 0.710784 114.398 0.271262 113.557 0.124058C108.555 -0.796387 91.6222 10.961 91.7611 31.1066C91.7611 40.185 95.3675 48.8915 101.787 55.3109C108.206 61.7303 116.913 65.3367 125.991 65.3367C135.07 65.3367 143.776 61.7303 150.196 55.3109C156.615 48.8915 160.221 40.185 160.221 31.1066C160.36 10.961 143.497 -0.796388 138.495 0.0893234Z" fill="#004236"/>
<path d="M155.654 39.2864C152.32 34.4131 147.721 30.5406 142.351 28.0847C141.772 27.8932 141.271 27.5185 140.923 27.0174C140.575 26.5162 140.4 25.9156 140.423 25.306C140.421 24.9132 140.497 24.5239 140.648 24.1612C140.799 23.7985 141.021 23.4697 141.301 23.1944C141.581 22.9191 141.914 22.7028 142.279 22.5584C142.645 22.414 143.035 22.3444 143.428 22.3537C146.728 22.4231 153.761 31.1066 155.654 39.2864Z" fill="#004236"/>
<path d="M141.257 11.2041C140.821 11.1995 140.389 11.2816 139.986 11.4456C139.583 11.6095 139.216 11.8521 138.907 12.1592C138.598 12.4663 138.354 12.8318 138.188 13.2343C138.022 13.6368 137.937 14.0684 137.94 14.5038C137.906 15.1662 138.087 15.8218 138.456 16.3727C138.826 16.9235 139.363 17.3402 139.989 17.5604C143.843 19.3152 147.285 21.861 150.092 25.0325C152.898 28.204 155.006 31.9302 156.279 35.9693C157.842 22.4231 145.581 11.3257 141.257 11.2041Z" fill="#004236"/>
<path d="M96.3807 39.2864C99.7216 34.4125 104.326 30.5401 109.701 28.0847C110.28 27.8932 110.781 27.5185 111.129 27.0174C111.477 26.5162 111.652 25.9156 111.629 25.306C111.622 24.9191 111.539 24.5373 111.384 24.1827C111.229 23.828 111.006 23.5075 110.726 23.2395C110.447 22.9716 110.118 22.7615 109.757 22.6214C109.396 22.4813 109.011 22.4139 108.624 22.4231C105.325 22.4231 98.2737 31.1066 96.3807 39.2864Z" fill="#004236"/>
<path d="M110.865 11.2041C111.299 11.1995 111.731 11.2817 112.133 11.4458C112.535 11.61 112.901 11.8529 113.208 12.1602C113.516 12.4676 113.759 12.8332 113.923 13.2356C114.087 13.6381 114.169 14.0692 114.164 14.5038C114.201 15.1668 114.021 15.8236 113.651 16.3751C113.282 16.9266 112.742 17.3426 112.115 17.5604C108.265 19.3181 104.827 21.8651 102.023 25.0363C99.2201 28.2076 97.1143 31.9323 95.8424 35.9693C94.2099 22.4231 106.523 11.3257 110.865 11.2041Z" fill="#004236"/>
</svg>
